<svg width="13" height="18" viewBox="0 0 13 18" fill="none" xmlns="http://www.w3.org/2000/svg">
<path d="M0.83759 8.3375L4.97322 1.07625C5.1082 0.839221 5.30366 0.642264 5.53965 0.505485C5.77564 0.368706 6.04371 0.297005 6.31647 0.297704C6.58923 0.298403 6.85693 0.371477 7.09221 0.509464C7.3275 0.647451 7.52195 0.845407 7.65572 1.08312L11.867 8.56437H11.8601C12.3311 9.46396 12.5762 10.4646 12.5745 11.48C12.5745 14.9531 9.75884 17.7687 6.28572 17.7687C2.81259 17.7687 -0.00303459 14.9531 -0.00303459 11.48C-0.00303459 10.3912 0.273215 9.3675 0.759465 8.475H0.758215L0.79759 8.40625L0.83759 8.3375Z" fill="url(#paint0_linear_14_2977)"/>
<path d="M0.83759 8.3375L4.97322 1.07625C5.1082 0.839221 5.30366 0.642264 5.53965 0.505485C5.77564 0.368706 6.04371 0.297005 6.31647 0.297704C6.58923 0.298403 6.85693 0.371477 7.09221 0.509464C7.3275 0.647451 7.52195 0.845407 7.65572 1.08312L11.867 8.56437H11.8601C12.3311 9.46396 12.5762 10.4646 12.5745 11.48C12.5745 14.9531 9.75884 17.7687 6.28572 17.7687C2.81259 17.7687 -0.00303459 14.9531 -0.00303459 11.48C-0.00303459 10.3912 0.273215 9.3675 0.759465 8.475H0.758215L0.79759 8.40625L0.83759 8.3375Z" fill="url(#paint1_radial_14_2977)"/>
<path d="M0.83759 8.3375L4.97322 1.07625C5.1082 0.839221 5.30366 0.642264 5.53965 0.505485C5.77564 0.368706 6.04371 0.297005 6.31647 0.297704C6.58923 0.298403 6.85693 0.371477 7.09221 0.509464C7.3275 0.647451 7.52195 0.845407 7.65572 1.08312L11.867 8.56437H11.8601C12.3311 9.46396 12.5762 10.4646 12.5745 11.48C12.5745 14.9531 9.75884 17.7687 6.28572 17.7687C2.81259 17.7687 -0.00303459 14.9531 -0.00303459 11.48C-0.00303459 10.3912 0.273215 9.3675 0.759465 8.475H0.758215L0.79759 8.40625L0.83759 8.3375Z" fill="url(#paint2_radial_14_2977)"/>
<path d="M0.83759 8.3375L4.97322 1.07625C5.1082 0.839221 5.30366 0.642264 5.53965 0.505485C5.77564 0.368706 6.04371 0.297005 6.31647 0.297704C6.58923 0.298403 6.85693 0.371477 7.09221 0.509464C7.3275 0.647451 7.52195 0.845407 7.65572 1.08312L11.867 8.56437H11.8601C12.3311 9.46396 12.5762 10.4646 12.5745 11.48C12.5745 14.9531 9.75884 17.7687 6.28572 17.7687C2.81259 17.7687 -0.00303459 14.9531 -0.00303459 11.48C-0.00303459 10.3912 0.273215 9.3675 0.759465 8.475H0.758215L0.79759 8.40625L0.83759 8.3375Z" fill="url(#paint3_radial_14_2977)"/>
<path d="M0.83759 8.3375L4.97322 1.07625C5.1082 0.839221 5.30366 0.642264 5.53965 0.505485C5.77564 0.368706 6.04371 0.297005 6.31647 0.297704C6.58923 0.298403 6.85693 0.371477 7.09221 0.509464C7.3275 0.647451 7.52195 0.845407 7.65572 1.08312L11.867 8.56437H11.8601C12.3311 9.46396 12.5762 10.4646 12.5745 11.48C12.5745 14.9531 9.75884 17.7687 6.28572 17.7687C2.81259 17.7687 -0.00303459 14.9531 -0.00303459 11.48C-0.00303459 10.3912 0.273215 9.3675 0.759465 8.475H0.758215L0.79759 8.40625L0.83759 8.3375Z" fill="url(#paint4_linear_14_2977)"/>
<defs>
<linearGradient id="paint0_linear_14_2977" x1="6.28572" y1="4.46875" x2="6.28572" y2="17.2812" gradientUnits="userSpaceOnUse">
<stop stop-color="#FD4452"/>
<stop offset="1" stop-color="#FF1F5D"/>
</linearGradient>
<radialGradient id="paint1_radial_14_2977" cx="0" cy="0" r="1" gradientUnits="userSpaceOnUse" gradientTransform="translate(6.28572 6.97937) rotate(90) scale(10.7904 9.49725)">
<stop offset="0.901" stop-color="#FE7C86" stop-opacity="0"/>
<stop offset="1" stop-color="#FE7C86"/>
</radialGradient>
<radialGradient id="paint2_radial_14_2977" cx="0" cy="0" r="1" gradientUnits="userSpaceOnUse" gradientTransform="translate(10.897 10.3744) rotate(143.778) scale(6.415 4.02611)">
<stop stop-color="#FEB4BA"/>
<stop offset="1" stop-color="#FEB4BA" stop-opacity="0"/>
</radialGradient>
<radialGradient id="paint3_radial_14_2977" cx="0" cy="0" r="1" gradientUnits="userSpaceOnUse" gradientTransform="translate(8.95197 1.475) rotate(61.928) scale(9.52631 4.69903)">
<stop stop-color="#FEA2A9"/>
<stop offset="1" stop-color="#FEA2A9" stop-opacity="0"/>
</radialGradient>
<linearGradient id="paint4_linear_14_2977" x1="2.10634" y1="5.71875" x2="6.28572" y2="7.125" gradientUnits="userSpaceOnUse">
<stop offset="0.032" stop-color="#E43D4A"/>
<stop offset="1" stop-color="#FD4452" stop-opacity="0"/>
</linearGradient>
</defs>
</svg>
