<svg width="18" height="18" viewBox="0 0 18 18" fill="none" xmlns="http://www.w3.org/2000/svg">
<path d="M17.7409 9C17.7409 13.8325 13.8234 17.75 8.99094 17.75C4.15844 17.75 0.240936 13.8325 0.240936 9C0.240936 4.1675 4.15844 0.25 8.99094 0.25C13.8234 0.25 17.7409 4.1675 17.7409 9Z" fill="url(#paint0_radial_14_2158)"/>
<path d="M17.7409 9C17.7409 13.8325 13.8234 17.75 8.99094 17.75C4.15844 17.75 0.240936 13.8325 0.240936 9C0.240936 4.1675 4.15844 0.25 8.99094 0.25C13.8234 0.25 17.7409 4.1675 17.7409 9Z" fill="url(#paint1_linear_14_2158)"/>
<path d="M17.7409 9C17.7409 13.8325 13.8234 17.75 8.99094 17.75C4.15844 17.75 0.240936 13.8325 0.240936 9C0.240936 4.1675 4.15844 0.25 8.99094 0.25C13.8234 0.25 17.7409 4.1675 17.7409 9Z" fill="url(#paint2_radial_14_2158)"/>
<path d="M17.7409 9C17.7409 13.8325 13.8234 17.75 8.99094 17.75C4.15844 17.75 0.240936 13.8325 0.240936 9C0.240936 4.1675 4.15844 0.25 8.99094 0.25C13.8234 0.25 17.7409 4.1675 17.7409 9Z" fill="url(#paint3_radial_14_2158)"/>
<path d="M17.7409 9C17.7409 13.8325 13.8234 17.75 8.99094 17.75C4.15844 17.75 0.240936 13.8325 0.240936 9C0.240936 4.1675 4.15844 0.25 8.99094 0.25C13.8234 0.25 17.7409 4.1675 17.7409 9Z" fill="url(#paint4_radial_14_2158)"/>
<circle cx="9.1423" cy="13.375" r="1.25" fill="white"/>
<circle cx="12.2673" cy="9" r="1.875" fill="white"/>
<ellipse cx="6.0173" cy="7.125" rx="2.5" ry="2.5" fill="white"/>
<defs>
<radialGradient id="paint0_radial_14_2158" cx="0" cy="0" r="1" gradientUnits="userSpaceOnUse" gradientTransform="translate(14.1034 4.4692) rotate(130.168) scale(17.3804)">
<stop offset="0.232" stop-color="#FF8C46"/>
<stop offset="1" stop-color="#EE534A"/>
</radialGradient>
<linearGradient id="paint1_linear_14_2158" x1="8.99094" y1="0.25" x2="8.99094" y2="4.3125" gradientUnits="userSpaceOnUse">
<stop stop-color="#FF7E51"/>
<stop offset="1" stop-color="#FF7E51" stop-opacity="0"/>
</linearGradient>
<radialGradient id="paint2_radial_14_2158" cx="0" cy="0" r="1" gradientUnits="userSpaceOnUse" gradientTransform="translate(14.4151 5.71843) rotate(136.38) scale(9.17294 9.885)">
<stop offset="0.179" stop-color="#FFA35F"/>
<stop offset="1" stop-color="#FF8544" stop-opacity="0"/>
</radialGradient>
<radialGradient id="paint3_radial_14_2158" cx="0" cy="0" r="1" gradientUnits="userSpaceOnUse" gradientTransform="translate(11.7984 9) rotate(180) scale(12.0312 12.5)">
<stop offset="0.62" stop-color="#E77049" stop-opacity="0"/>
<stop offset="0.951" stop-color="#FFA693"/>
</radialGradient>
<radialGradient id="paint4_radial_14_2158" cx="0" cy="0" r="1" gradientUnits="userSpaceOnUse" gradientTransform="translate(8.99094 4.625) rotate(90) scale(13.125 14.5755)">
<stop offset="0.863" stop-color="#EE4C57" stop-opacity="0"/>
<stop offset="1" stop-color="#EC5B84"/>
</radialGradient>
</defs>
</svg>
