<svg width="24" height="24" viewBox="0 0 24 24" fill="none" xmlns="http://www.w3.org/2000/svg">
<path fill-rule="evenodd" clip-rule="evenodd" d="M9.47977 9.55654C10.5229 8.72205 11.3985 7.62203 12 6.4C12.6015 7.62203 13.4771 8.72205 14.5202 9.55654C15.8794 10.6439 16.48 11.8635 16.48 13.0802C16.48 14.2683 16.008 15.4078 15.1678 16.248C14.3277 17.0882 13.1882 17.5602 12 17.5602C10.8118 17.5602 9.67232 17.0882 8.83216 16.248C7.992 15.4078 7.52 14.2683 7.52 13.0802C7.52 11.8635 8.12056 10.6439 9.47977 9.55654Z" fill="#FF699C"/>
<path fill-rule="evenodd" clip-rule="evenodd" d="M9.68212 20.6536C11.6429 21.1787 13.7238 21.0226 15.5843 20.2109C17.4448 19.3993 18.9746 17.9801 19.9235 16.1857C19.992 16.0556 20.0855 15.9402 20.1986 15.8462C20.3118 15.7522 20.4423 15.6814 20.5827 15.6378C20.7232 15.5943 20.8709 15.5788 21.0174 15.5923C21.1638 15.6058 21.3062 15.648 21.4363 15.7166C21.5665 15.7851 21.6818 15.8786 21.7758 15.9917C21.8698 16.1048 21.9407 16.2353 21.9842 16.3758C22.0278 16.5163 22.0433 16.6639 22.0298 16.8104C22.0163 16.9569 21.974 17.0992 21.9055 17.2294C19.5204 21.7532 14.2508 24.1954 9.10208 22.817C3.12812 21.2157 -0.415948 15.076 1.1842 9.10208C2.78435 3.12812 8.92516 -0.415944 14.898 1.1842C17.2648 1.81774 19.3586 3.21009 20.8581 5.14777C22.3577 7.08545 23.1804 9.46149 23.2 11.9116C23.2078 12.9227 22.0858 13.4815 21.2818 12.9418L18.2887 10.9239C17.1599 10.1625 17.9169 8.40335 19.2449 8.70009L20.4296 8.96435C19.9074 7.51504 19.0203 6.22489 17.8539 5.21852C16.6875 4.21216 15.2813 3.5236 13.7711 3.21935C12.2609 2.91509 10.6978 3.00544 9.23275 3.48165C7.76767 3.95786 6.45016 4.80385 5.40748 5.93788C4.36481 7.07192 3.6322 8.45569 3.28043 9.95552C2.92866 11.4553 2.96962 13.0205 3.39935 14.4999C3.82908 15.9793 4.63306 17.3228 5.73363 18.4008C6.83419 19.4788 8.19414 20.2547 9.68212 20.6536Z" fill="#FF699C"/>
</svg>
